<?xml version="1.0" encoding="UTF-8" standalone="no"?>
<!-- Created with Inkscape (http://www.inkscape.org/) -->

<svg
   width=""
   height="5rem"
   viewBox="0 0 210 297"
   version="1.1"
   id="svg1"
   inkscape:version="1.3 (0e150ed6c4, 2023-07-21)"
   sodipodi:docname="Logo.svg"
   xmlns:inkscape="http://www.inkscape.org/namespaces/inkscape"
   xmlns:sodipodi="http://sodipodi.sourceforge.net/DTD/sodipodi-0.dtd"
   xmlns="http://www.w3.org/2000/svg"
   xmlns:svg="http://www.w3.org/2000/svg">
  <sodipodi:namedview
     id="namedview1"
     pagecolor="#ffffff"
     bordercolor="#000000"
     borderopacity="0.25"
     inkscape:showpageshadow="2"
     inkscape:pageopacity="0.0"
     inkscape:pagecheckerboard="0"
     inkscape:deskcolor="#d1d1d1"
     inkscape:document-units="mm"
     inkscape:zoom="0.51445126"
     inkscape:cx="345.99974"
     inkscape:cy="565.65125"
     inkscape:window-width="1440"
     inkscape:window-height="740"
     inkscape:window-x="-6"
     inkscape:window-y="-6"
     inkscape:window-maximized="1"
     inkscape:current-layer="layer1" />
  <defs
     id="defs1" />
  <g
     inkscape:label="Layer 1"
     inkscape:groupmode="layer"
     id="layer1"
     style="display:inline">
    <rect
       style="opacity:1;fill:#d40000;stroke-width:0.298579"
       id="rect3"
       width="106.46053"
       height="28.818172"
       x="49.37299"
       y="54.53363" />
    <rect
       style="opacity:1;fill:#d40000;stroke-width:0.309682"
       id="rect4"
       width="18.514874"
       height="139.50615"
       x="91.031456"
       y="82.696838" />
    <rect
       style="fill:#d40000;stroke-width:0.343557"
       id="rect4-7"
       width="20.978363"
       height="151.5327"
       x="-136.31143"
       y="-294.82031"
       transform="matrix(-0.84374352,0.53674656,-0.21398139,-0.97683774,0,0)" />
    <rect
       style="fill:#d40000;stroke-width:0.341695"
       id="rect4-7-4"
       width="20.925808"
       height="150.2717"
       x="73.615448"
       y="-177.77206"
       transform="matrix(0.84586254,0.53340093,0.215777,-0.97644267,0,0)" />
    <path
       d="m 49.887497,54.451661 a 11.378923,14.36816 0 0 0 -1.619481,0.146022 11.378923,14.36816 0 0 0 -1.586514,0.436177 11.378923,14.36816 0 0 0 -1.521049,0.716261 11.378923,14.36816 0 0 0 -1.424939,0.982499 11.378923,14.36816 0 0 0 -1.300041,1.228597 11.378923,14.36816 0 0 0 -1.147751,1.449516 11.378923,14.36816 0 0 0 -0.973175,1.640856 11.378923,14.36816 0 0 0 -0.777703,1.799465 11.378923,14.36816 0 0 0 -0.567375,1.920941 11.378923,14.36816 0 0 0 -0.345439,2.003392 11.378923,14.36816 0 0 0 -0.115612,2.044308 11.378923,14.36816 0 0 0 0.115612,2.044932 11.378923,14.36816 0 0 0 0.345439,2.003391 11.378923,14.36816 0 0 0 0.567375,1.920945 11.378923,14.36816 0 0 0 0.777703,1.79883 11.378923,14.36816 0 0 0 0.973175,1.64149 11.378923,14.36816 0 0 0 1.147751,1.449512 11.378923,14.36816 0 0 0 1.300041,1.228599 11.378923,14.36816 0 0 0 1.424939,0.982498 11.378923,14.36816 0 0 0 1.521049,0.716261 11.378923,14.36816 0 0 0 1.586514,0.435546 11.378923,14.36816 0 0 0 1.619481,0.146656 11.378923,14.36816 0 0 0 1.619016,-0.146656 11.378923,14.36816 0 0 0 1.586515,-0.435546 11.378923,14.36816 0 0 0 1.521049,-0.716261 11.378923,14.36816 0 0 0 1.424939,-0.982498 11.378923,14.36816 0 0 0 1.300041,-1.228599 11.378923,14.36816 0 0 0 1.147751,-1.449512 11.378923,14.36816 0 0 0 0.973174,-1.64149 11.378923,14.36816 0 0 0 0.778168,-1.79883 11.378923,14.36816 0 0 0 0.566912,-1.920945 11.378923,14.36816 0 0 0 0.345439,-2.003391 11.378923,14.36816 0 0 0 0.115611,-2.044932 11.378923,14.36816 0 0 0 -0.01347,-0.70494 11.378923,14.36816 0 0 0 -0.04132,-0.703043 11.378923,14.36816 0 0 0 -0.06825,-0.699894 11.378923,14.36816 0 0 0 -0.09565,-0.694862 11.378923,14.36816 0 0 0 -0.122111,-0.687939 11.378923,14.36816 0 0 0 -0.149041,-0.679756 11.378923,14.36816 0 0 0 -0.175041,-0.669685 11.378923,14.36816 0 0 0 -0.201042,-0.658357 11.378923,14.36816 0 0 0 -0.226579,-0.644508 11.378923,14.36816 0 0 0 -0.251186,-0.630035 11.378923,14.36816 0 0 0 -0.275331,-0.613668 11.378923,14.36816 0 0 0 -0.298545,-0.595417 11.378923,14.36816 0 0 0 -0.321761,-0.576533 11.378923,14.36816 0 0 0 -0.343581,-0.556394 11.378923,14.36816 0 0 0 -0.364476,-0.533733 11.378923,14.36816 0 0 0 -0.385373,-0.511076 11.378923,14.36816 0 0 0 -0.404405,-0.485899 11.378923,14.36816 0 0 0 -0.422979,-0.460724 11.378923,14.36816 0 0 0 -0.440156,-0.433661 11.378923,14.36816 0 0 0 -0.456872,-0.406593 11.378923,14.36816 0 0 0 -0.47173,-0.377013 11.378923,14.36816 0 0 0 -0.486122,-0.347431 11.378923,14.36816 0 0 0 -0.498659,-0.317219 11.378923,14.36816 0 0 0 -0.510731,-0.285749 11.378923,14.36816 0 0 0 -0.520945,-0.25365 11.378923,14.36816 0 0 0 -0.530231,-0.22155 11.378923,14.36816 0 0 0 -0.538589,-0.188193 11.378923,14.36816 0 0 0 -0.544624,-0.154203 11.378923,14.36816 0 0 0 -0.550197,-0.120854 11.378923,14.36816 0 0 0 -0.554375,-0.08623 11.378923,14.36816 0 0 0 -0.55716,-0.0516 11.378923,14.36816 0 0 0 -0.55809,-0.01763 z"
       style="opacity:1;fill:#d40000;stroke-width:0.276779"
       id="path8" />
    <path
       d="m 155.60589,54.531788 a 11.378923,14.36816 0 0 0 -1.61948,0.146022 11.378923,14.36816 0 0 0 -1.58652,0.436176 11.378923,14.36816 0 0 0 -1.52105,0.716262 11.378923,14.36816 0 0 0 -1.42494,0.982499 11.378923,14.36816 0 0 0 -1.30004,1.228597 11.378923,14.36816 0 0 0 -1.14775,1.449515 11.378923,14.36816 0 0 0 -0.97317,1.640856 11.378923,14.36816 0 0 0 -0.77771,1.799466 11.378923,14.36816 0 0 0 -0.56737,1.920941 11.378923,14.36816 0 0 0 -0.34544,2.003392 11.378923,14.36816 0 0 0 -0.11561,2.044309 11.378923,14.36816 0 0 0 0.11561,2.044932 11.378923,14.36816 0 0 0 0.34544,2.003391 11.378923,14.36816 0 0 0 0.56737,1.920932 11.378923,14.36816 0 0 0 0.77771,1.798843 11.378923,14.36816 0 0 0 0.97317,1.641477 11.378923,14.36816 0 0 0 1.14775,1.449525 11.378923,14.36816 0 0 0 1.30004,1.228599 11.378923,14.36816 0 0 0 1.42494,0.982497 11.378923,14.36816 0 0 0 1.52105,0.716262 11.378923,14.36816 0 0 0 1.58652,0.435546 11.378923,14.36816 0 0 0 1.61948,0.146656 11.378923,14.36816 0 0 0 1.61901,-0.146656 11.378923,14.36816 0 0 0 1.58652,-0.435546 11.378923,14.36816 0 0 0 1.52105,-0.716262 11.378923,14.36816 0 0 0 1.42494,-0.982497 11.378923,14.36816 0 0 0 1.30004,-1.228599 11.378923,14.36816 0 0 0 1.14775,-1.449525 11.378923,14.36816 0 0 0 0.97317,-1.641477 11.378923,14.36816 0 0 0 0.77817,-1.798843 11.378923,14.36816 0 0 0 0.56691,-1.920932 11.378923,14.36816 0 0 0 0.34544,-2.003391 11.378923,14.36816 0 0 0 0.11561,-2.044932 11.378923,14.36816 0 0 0 -0.0135,-0.70494 11.378923,14.36816 0 0 0 -0.0413,-0.703043 11.378923,14.36816 0 0 0 -0.0683,-0.699895 11.378923,14.36816 0 0 0 -0.0956,-0.694862 11.378923,14.36816 0 0 0 -0.12211,-0.687939 11.378923,14.36816 0 0 0 -0.14904,-0.679756 11.378923,14.36816 0 0 0 -0.17504,-0.669685 11.378923,14.36816 0 0 0 -0.20104,-0.658357 11.378923,14.36816 0 0 0 -0.22658,-0.644508 11.378923,14.36816 0 0 0 -0.25119,-0.630035 11.378923,14.36816 0 0 0 -0.27533,-0.613668 11.378923,14.36816 0 0 0 -0.29854,-0.595417 11.378923,14.36816 0 0 0 -0.32176,-0.576533 11.378923,14.36816 0 0 0 -0.34359,-0.556394 11.378923,14.36816 0 0 0 -0.36447,-0.533734 11.378923,14.36816 0 0 0 -0.38537,-0.511075 11.378923,14.36816 0 0 0 -0.40441,-0.485899 11.378923,14.36816 0 0 0 -0.42298,-0.460725 11.378923,14.36816 0 0 0 -0.44015,-0.43366 11.378923,14.36816 0 0 0 -0.45688,-0.406593 11.378923,14.36816 0 0 0 -0.47173,-0.377013 11.378923,14.36816 0 0 0 -0.48612,-0.347431 11.378923,14.36816 0 0 0 -0.49866,-0.317219 11.378923,14.36816 0 0 0 -0.51073,-0.285749 11.378923,14.36816 0 0 0 -0.52094,-0.25365 11.378923,14.36816 0 0 0 -0.53023,-0.221551 11.378923,14.36816 0 0 0 -0.53859,-0.188192 11.378923,14.36816 0 0 0 -0.54463,-0.154203 11.378923,14.36816 0 0 0 -0.55019,-0.120854 11.378923,14.36816 0 0 0 -0.55438,-0.08623 11.378923,14.36816 0 0 0 -0.55716,-0.0516 11.378923,14.36816 0 0 0 -0.55809,-0.01762 z"
       style="fill:#d40000;stroke-width:0.276779"
       id="path8-7" />
    <path
       d="m 100.34928,213.67301 a 9.2650984,9.8527428 0 0 0 -1.318639,0.10009 9.2650984,9.8527428 0 0 0 -1.291792,0.29911 9.2650984,9.8527428 0 0 0 -1.238488,0.49116 9.2650984,9.8527428 0 0 0 -1.160233,0.67374 9.2650984,9.8527428 0 0 0 -1.058536,0.84249 9.2650984,9.8527428 0 0 0 -0.934537,0.99397 9.2650984,9.8527428 0 0 0 -0.792392,1.12519 9.2650984,9.8527428 0 0 0 -0.633232,1.23396 9.2650984,9.8527428 0 0 0 -0.461976,1.31726 9.2650984,9.8527428 0 0 0 -0.281267,1.37379 9.2650984,9.8527428 0 0 0 -0.09413,1.40185 9.2650984,9.8527428 0 0 0 0.09413,1.40229 9.2650984,9.8527428 0 0 0 0.281267,1.37379 9.2650984,9.8527428 0 0 0 0.461976,1.31725 9.2650984,9.8527428 0 0 0 0.633232,1.23352 9.2650984,9.8527428 0 0 0 0.792392,1.12563 9.2650984,9.8527428 0 0 0 0.934537,0.99398 9.2650984,9.8527428 0 0 0 1.058536,0.84251 9.2650984,9.8527428 0 0 0 1.160233,0.67372 9.2650984,9.8527428 0 0 0 1.238488,0.49116 9.2650984,9.8527428 0 0 0 1.291792,0.29867 9.2650984,9.8527428 0 0 0 1.318639,0.10061 9.2650984,9.8527428 0 0 0 1.31826,-0.10061 9.2650984,9.8527428 0 0 0 1.29179,-0.29867 9.2650984,9.8527428 0 0 0 1.23848,-0.49116 9.2650984,9.8527428 0 0 0 1.16023,-0.67372 9.2650984,9.8527428 0 0 0 1.05854,-0.84251 9.2650984,9.8527428 0 0 0 0.93453,-0.99398 9.2650984,9.8527428 0 0 0 0.7924,-1.12563 9.2650984,9.8527428 0 0 0 0.6336,-1.23352 9.2650984,9.8527428 0 0 0 0.46161,-1.31725 9.2650984,9.8527428 0 0 0 0.28126,-1.37379 9.2650984,9.8527428 0 0 0 0.0941,-1.40229 9.2650984,9.8527428 0 0 0 -0.011,-0.48339 9.2650984,9.8527428 0 0 0 -0.0337,-0.48211 9.2650984,9.8527428 0 0 0 -0.0557,-0.47994 9.2650984,9.8527428 0 0 0 -0.0779,-0.47649 9.2650984,9.8527428 0 0 0 -0.0994,-0.47174 9.2650984,9.8527428 0 0 0 -0.12137,-0.46613 9.2650984,9.8527428 0 0 0 -0.14253,-0.45922 9.2650984,9.8527428 0 0 0 -0.16368,-0.45147 9.2650984,9.8527428 0 0 0 -0.18449,-0.44196 9.2650984,9.8527428 0 0 0 -0.20452,-0.43203 9.2650984,9.8527428 0 0 0 -0.22419,-0.42082 9.2650984,9.8527428 0 0 0 -0.24308,-0.4083 9.2650984,9.8527428 0 0 0 -0.26199,-0.39534 9.2650984,9.8527428 0 0 0 -0.27976,-0.38154 9.2650984,9.8527428 0 0 0 -0.29677,-0.366 9.2650984,9.8527428 0 0 0 -0.31378,-0.35047 9.2650984,9.8527428 0 0 0 -0.32928,-0.33319 9.2650984,9.8527428 0 0 0 -0.3444,-0.31593 9.2650984,9.8527428 0 0 0 -0.35839,-0.29739 9.2650984,9.8527428 0 0 0 -0.37201,-0.27881 9.2650984,9.8527428 0 0 0 -0.38408,-0.25852 9.2650984,9.8527428 0 0 0 -0.39582,-0.23826 9.2650984,9.8527428 0 0 0 -0.40601,-0.21752 9.2650984,9.8527428 0 0 0 -0.41585,-0.19596 9.2650984,9.8527428 0 0 0 -0.42419,-0.17393 9.2650984,9.8527428 0 0 0 -0.43173,-0.15193 9.2650984,9.8527428 0 0 0 -0.43853,-0.12904 9.2650984,9.8527428 0 0 0 -0.44346,-0.1057 9.2650984,9.8527428 0 0 0 -0.44798,-0.0829 9.2650984,9.8527428 0 0 0 -0.45139,-0.0591 9.2650984,9.8527428 0 0 0 -0.45366,-0.0354 9.2650984,9.8527428 0 0 0 -0.45442,-0.0115 z"
       style="fill:#d40000;stroke-width:0.206817"
       id="path8-8" />
    <path
       d="m 32.760462,204.97385 a 9.7335927,13.420188 0 0 0 -1.385215,0.13657 9.7335927,13.420188 0 0 0 -1.357033,0.40732 9.7335927,13.420188 0 0 0 -1.301184,0.66898 9.7335927,13.420188 0 0 0 -1.218719,0.91764 9.7335927,13.420188 0 0 0 -1.111722,1.14725 9.7335927,13.420188 0 0 0 -0.982282,1.35396 9.7335927,13.420188 0 0 0 -0.831965,1.53322 9.7335927,13.420188 0 0 0 -0.665988,1.68045 9.7335927,13.420188 0 0 0 -0.484878,1.79407 9.7335927,13.420188 0 0 0 -0.295417,1.87113 9.7335927,13.420188 0 0 0 -0.09917,1.91004 9.7335927,13.420188 0 0 0 0.09917,1.90928 9.7335927,13.420188 0 0 0 0.295417,1.87114 9.7335927,13.420188 0 0 0 0.484878,1.7941 9.7335927,13.420188 0 0 0 0.665988,1.68046 9.7335927,13.420188 0 0 0 0.831965,1.5332 9.7335927,13.420188 0 0 0 0.982282,1.35396 9.7335927,13.420188 0 0 0 1.111722,1.14724 9.7335927,13.420188 0 0 0 1.218719,0.91764 9.7335927,13.420188 0 0 0 1.301184,0.66897 9.7335927,13.420188 0 0 0 1.357033,0.40733 9.7335927,13.420188 0 0 0 1.385215,0.13657 9.7335927,13.420188 0 0 0 1.385218,-0.13657 9.7335927,13.420188 0 0 0 1.35703,-0.40733 9.7335927,13.420188 0 0 0 1.301183,-0.66897 9.7335927,13.420188 0 0 0 1.219242,-0.91764 9.7335927,13.420188 0 0 0 1.111721,-1.14724 9.7335927,13.420188 0 0 0 0.98176,-1.35396 9.7335927,13.420188 0 0 0 0.832487,-1.5332 9.7335927,13.420188 0 0 0 0.665468,-1.68046 9.7335927,13.420188 0 0 0 0.4854,-1.7941 9.7335927,13.420188 0 0 0 0.294893,-1.87114 9.7335927,13.420188 0 0 0 0.09918,-1.90928 9.7335927,13.420188 0 0 0 -0.01149,-0.65904 9.7335927,13.420188 0 0 0 -0.03549,-0.65678 9.7335927,13.420188 0 0 0 -0.05845,-0.6537 9.7335927,13.420188 0 0 0 -0.08141,-0.64914 9.7335927,13.420188 0 0 0 -0.104909,-0.64228 9.7335927,13.420188 0 0 0 -0.127352,-0.6354 9.7335927,13.420188 0 0 0 -0.149795,-0.6255 9.7335927,13.420188 0 0 0 -0.171719,-0.61405 9.7335927,13.420188 0 0 0 -0.193636,-0.6026 9.7335927,13.420188 0 0 0 -0.215037,-0.5881 9.7335927,13.420188 0 0 0 -0.235394,-0.57287 9.7335927,13.420188 0 0 0 -0.255748,-0.55686 9.7335927,13.420188 0 0 0 -0.275061,-0.53853 9.7335927,13.420188 0 0 0 -0.293848,-0.51944 9.7335927,13.420188 0 0 0 -0.312119,-0.49812 9.7335927,13.420188 0 0 0 -0.329339,-0.4775 9.7335927,13.420188 0 0 0 -0.346044,-0.45388 9.7335927,13.420188 0 0 0 -0.3617,-0.43021 9.7335927,13.420188 0 0 0 -0.376839,-0.40581 9.7335927,13.420188 0 0 0 -0.390406,-0.3791 9.7335927,13.420188 0 0 0 -0.403457,-0.35243 9.7335927,13.420188 0 0 0 -0.415983,-0.32416 9.7335927,13.420188 0 0 0 -0.426421,-0.29674 9.7335927,13.420188 0 0 0 -0.436859,-0.26698 9.7335927,13.420188 0 0 0 -0.445733,-0.23647 9.7335927,13.420188 0 0 0 -0.453561,-0.20671 9.7335927,13.420188 0 0 0 -0.460347,-0.17622 9.7335927,13.420188 0 0 0 -0.46661,-0.14422 9.7335927,13.420188 0 0 0 -0.470264,-0.11232 9.7335927,13.420188 0 0 0 -0.474439,-0.0809 9.7335927,13.420188 0 0 0 -0.476527,-0.0489 9.7335927,13.420188 0 0 0 -0.47757,-0.0159 z"
       style="opacity:1;fill:#d40000;stroke-width:0.32306"
       id="path10" />
    <path
       d="m 169.3153,207.22245 a 9.7335927,13.420188 0 0 0 -1.38521,0.13657 9.7335927,13.420188 0 0 0 -1.35704,0.40733 9.7335927,13.420188 0 0 0 -1.30118,0.66897 9.7335927,13.420188 0 0 0 -1.21872,0.91764 9.7335927,13.420188 0 0 0 -1.11172,1.14725 9.7335927,13.420188 0 0 0 -0.98228,1.35396 9.7335927,13.420188 0 0 0 -0.83197,1.53322 9.7335927,13.420188 0 0 0 -0.66598,1.68045 9.7335927,13.420188 0 0 0 -0.48488,1.79408 9.7335927,13.420188 0 0 0 -0.29542,1.87112 9.7335927,13.420188 0 0 0 -0.0992,1.91005 9.7335927,13.420188 0 0 0 0.0992,1.90928 9.7335927,13.420188 0 0 0 0.29542,1.87113 9.7335927,13.420188 0 0 0 0.48488,1.7941 9.7335927,13.420188 0 0 0 0.66598,1.68046 9.7335927,13.420188 0 0 0 0.83197,1.5332 9.7335927,13.420188 0 0 0 0.98228,1.35396 9.7335927,13.420188 0 0 0 1.11172,1.14724 9.7335927,13.420188 0 0 0 1.21872,0.91764 9.7335927,13.420188 0 0 0 1.30118,0.66898 9.7335927,13.420188 0 0 0 1.35704,0.40732 9.7335927,13.420188 0 0 0 1.38521,0.13657 9.7335927,13.420188 0 0 0 1.38522,-0.13657 9.7335927,13.420188 0 0 0 1.35703,-0.40732 9.7335927,13.420188 0 0 0 1.30118,-0.66898 9.7335927,13.420188 0 0 0 1.21925,-0.91764 9.7335927,13.420188 0 0 0 1.11172,-1.14724 9.7335927,13.420188 0 0 0 0.98176,-1.35396 9.7335927,13.420188 0 0 0 0.83248,-1.5332 9.7335927,13.420188 0 0 0 0.66547,-1.68046 9.7335927,13.420188 0 0 0 0.4854,-1.7941 9.7335927,13.420188 0 0 0 0.2949,-1.87113 9.7335927,13.420188 0 0 0 0.0992,-1.90928 9.7335927,13.420188 0 0 0 -0.0115,-0.65905 9.7335927,13.420188 0 0 0 -0.0355,-0.65677 9.7335927,13.420188 0 0 0 -0.0584,-0.65371 9.7335927,13.420188 0 0 0 -0.0814,-0.64914 9.7335927,13.420188 0 0 0 -0.1049,-0.64228 9.7335927,13.420188 0 0 0 -0.12736,-0.6354 9.7335927,13.420188 0 0 0 -0.14979,-0.6255 9.7335927,13.420188 0 0 0 -0.17172,-0.61405 9.7335927,13.420188 0 0 0 -0.19364,-0.6026 9.7335927,13.420188 0 0 0 -0.21503,-0.5881 9.7335927,13.420188 0 0 0 -0.2354,-0.57287 9.7335927,13.420188 0 0 0 -0.25574,-0.55686 9.7335927,13.420188 0 0 0 -0.27507,-0.53853 9.7335927,13.420188 0 0 0 -0.29384,-0.51944 9.7335927,13.420188 0 0 0 -0.31212,-0.49812 9.7335927,13.420188 0 0 0 -0.32934,-0.4775 9.7335927,13.420188 0 0 0 -0.34605,-0.45388 9.7335927,13.420188 0 0 0 -0.3617,-0.43021 9.7335927,13.420188 0 0 0 -0.37683,-0.40581 9.7335927,13.420188 0 0 0 -0.39041,-0.3791 9.7335927,13.420188 0 0 0 -0.40346,-0.35243 9.7335927,13.420188 0 0 0 -0.41598,-0.32416 9.7335927,13.420188 0 0 0 -0.42642,-0.29674 9.7335927,13.420188 0 0 0 -0.43686,-0.26697 9.7335927,13.420188 0 0 0 -0.44573,-0.23648 9.7335927,13.420188 0 0 0 -0.45356,-0.20671 9.7335927,13.420188 0 0 0 -0.46035,-0.17621 9.7335927,13.420188 0 0 0 -0.46661,-0.14423 9.7335927,13.420188 0 0 0 -0.47027,-0.11232 9.7335927,13.420188 0 0 0 -0.47443,-0.0809 9.7335927,13.420188 0 0 0 -0.47653,-0.0489 9.7335927,13.420188 0 0 0 -0.47757,-0.0159 z"
       style="fill:#d40000;stroke-width:0.32306"
       id="path10-0" />
    <rect
       style="opacity:1;fill:#d40000;stroke-width:0.298579"
       id="rect10"
       width="101.82661"
       height="27.324409"
       x="52.180779"
       y="142.66945" />
  </g>
</svg>
